<svg id="close-circle" xmlns="http://www.w3.org/2000/svg" width="26.458" height="26.458" viewBox="0 0 26.458 26.458">
  <path id="Vector" d="M22.049,11.024A11.024,11.024,0,1,1,11.024,0,11.024,11.024,0,0,1,22.049,11.024Z" transform="translate(2.205 2.205)" fill="rgba(41,45,50,0.1)"/>
  <path id="Vector-2" data-name="Vector" d="M5.113,3.944,7.648,1.408A.826.826,0,0,0,6.48.24L3.944,2.775,1.408.24A.826.826,0,0,0,.24,1.408L2.775,3.944.24,6.48a.832.832,0,0,0,0,1.169.825.825,0,0,0,1.169,0L3.944,5.113,6.48,7.648a.825.825,0,0,0,1.169,0,.832.832,0,0,0,0-1.169Z" transform="translate(9.285 9.285)" fill="#292d32"/>
  <path id="Vector-3" data-name="Vector" d="M0,0H26.458V26.458H0Z" fill="none" opacity="0"/>
</svg>
