<svg xmlns="http://www.w3.org/2000/svg" width="133.377" height="25.971" viewBox="0 0 133.377 25.971">
  <g id="Switch-logo" transform="translate(-2.317 -3.25)">
    <path id="Path_10028" data-name="Path 10028" d="M20.256,38.214a.772.772,0,0,1-.726-.515c-.05-.143-.1-.285-.151-.427-.214-.6-.436-1.212-.6-1.839a1.7,1.7,0,0,1,.362-1.279,7.944,7.944,0,0,0-5.586-12.743,1.2,1.2,0,0,1-1.236-1.35c0-.477,0-.5.006-.727v-.08A3.81,3.81,0,0,1,12.45,18.1a.9.9,0,0,1,.94-.585,6.808,6.808,0,0,1,.921.1,11.854,11.854,0,0,1,7.8,4.486,20.911,20.911,0,0,1,6.257-8.6,1.1,1.1,0,0,1,1.525.121l1,1.127a1.107,1.107,0,0,1-.083,1.541c-.234.213-.5.453-.751.69a17.567,17.567,0,0,0-4.1,5.588,16.09,16.09,0,0,0-1.37,6.782,11.392,11.392,0,0,1-3.224,8.1c-.2.218-.422.413-.611.58-.015.014-.03.025-.045.037a.747.747,0,0,1-.453.151Z" transform="translate(-9.5 -9.496)" fill="#1899d7"/>
    <path id="Path_10029" data-name="Path 10029" d="M19.574,4.256a.6.6,0,0,1,.448.2l.995,1.127a.6.6,0,0,1-.045.836c-.262.238-.51.465-.754.695a16.6,16.6,0,0,0-5.633,12.742,10.891,10.891,0,0,1-3.089,7.75c-.18.193-.377.371-.575.546l-.014.011a.248.248,0,0,1-.151.05.27.27,0,0,1-.251-.18c-.265-.749-.544-1.476-.738-2.224a1.219,1.219,0,0,1,.281-.855A8.445,8.445,0,0,0,4.112,11.418c-.577-.068-.791-.226-.792-.852,0-.521,0-.491.008-.793.026-.976.034-1.257.561-1.257a6.474,6.474,0,0,1,.847.1,11.322,11.322,0,0,1,7.63,4.488,2.77,2.77,0,0,0,.225.271.123.123,0,0,0,.021.018.173.173,0,0,0,.1.031.191.191,0,0,0,.177-.124,20.552,20.552,0,0,1,6.305-8.9.594.594,0,0,1,.379-.136m0-1.006a1.605,1.605,0,0,0-1.02.367,21.457,21.457,0,0,0-6.081,8.029A12.327,12.327,0,0,0,4.887,7.62a6.912,6.912,0,0,0-1-.107,1.388,1.388,0,0,0-1.412.916,4.165,4.165,0,0,0-.155,1.318v.079c-.007.236-.007.271-.007.742a1.824,1.824,0,0,0,.474,1.343A1.96,1.96,0,0,0,4,12.417a7.825,7.825,0,0,1,3.83,1.5,7.349,7.349,0,0,1,2.906,6.651,7.759,7.759,0,0,1-1.5,3.8,2.208,2.208,0,0,0-.442,1.7c.169.65.394,1.277.612,1.883q.076.211.151.425a1.277,1.277,0,0,0,1.2.85,1.248,1.248,0,0,0,.754-.251c.025-.019.05-.039.073-.059.2-.175.427-.38.646-.615a11.881,11.881,0,0,0,3.359-8.445,15.555,15.555,0,0,1,1.326-6.571A17.081,17.081,0,0,1,20.9,7.853c.249-.233.514-.474.746-.686a1.6,1.6,0,0,0,.122-2.245l-.457-.52-.538-.611a1.6,1.6,0,0,0-1.2-.541Z" fill="#1899d7"/>
    <path id="Path_10030" data-name="Path 10030" d="M501.92,86.807l1.086-2.946a10.87,10.87,0,0,0,1.919.761,7.171,7.171,0,0,0,2.04.352,3.429,3.429,0,0,0,1.861-.423,1.284,1.284,0,0,0,.654-1.123,1.085,1.085,0,0,0-.495-.845,15.834,15.834,0,0,0-1.606-1.038q-.242-.12-.724-.41-1.646-.99-2.575-1.643a6.883,6.883,0,0,1-1.642-1.642,3.708,3.708,0,0,1-.712-2.221,4.122,4.122,0,0,1,.736-2.33,4.775,4.775,0,0,1,2.04-1.618,7.608,7.608,0,0,1,3.115-.592,9.432,9.432,0,0,1,2.487.352,9.032,9.032,0,0,1,2.245.93l-1.157,2.752a14.928,14.928,0,0,0-1.907-.676,6.486,6.486,0,0,0-1.62-.194,2.594,2.594,0,0,0-1.459.374,1.184,1.184,0,0,0-.1,1.956,9.305,9.305,0,0,0,1.509.956,5.787,5.787,0,0,1,.8.435q1.738,1.014,2.656,1.654a6.74,6.74,0,0,1,1.618,1.618,3.749,3.749,0,0,1,.7,2.233,4.042,4.042,0,0,1-.76,2.414,5.008,5.008,0,0,1-2.2,1.666,8.721,8.721,0,0,1-3.392.6,10.789,10.789,0,0,1-2.692-.41A9.256,9.256,0,0,1,501.92,86.807Z" transform="translate(-474.29 -64.428)" fill="#191919"/>
    <path id="Path_10031" data-name="Path 10031" d="M740.56,174.914l-2-6.615-1.956,6.615h-3.332l-3.549-11.106,3.571-1.038,1.76,7.146,1.642-6.712h3.815l1.76,6.712,1.6-6.712h3.839l-3.815,11.71Z" transform="translate(-690.815 -151.496)" fill="#191919"/>
    <path id="Path_10032" data-name="Path 10032" d="M1096.074,60.415a1.99,1.99,0,0,1-1.459-.616,2.063,2.063,0,0,1,0-2.944,1.994,1.994,0,0,1,1.459-.616,2.1,2.1,0,0,1,2.1,2.1,1.987,1.987,0,0,1-.616,1.459A2.023,2.023,0,0,1,1096.074,60.415Zm-1.883,13.329V62.033h3.79v11.71Z" transform="translate(-1036.768 -50.325)" fill="#191919"/>
    <path id="Path_10033" data-name="Path 10033" d="M1191.825,109.717l.676,2.946h-3.283v3.911a2.044,2.044,0,0,0,.41,1.328,1.384,1.384,0,0,0,1.135.508,3.232,3.232,0,0,0,1.5-.386l1.087,2.632a3.769,3.769,0,0,1-1.257.6,5.257,5.257,0,0,1-1.569.266,5.6,5.6,0,0,1-3.646-1.157,3.989,3.989,0,0,1-1.425-3.284v-4.42h-1.69v-2.946h1.69v-2.968l3.766-.579v3.549Z" transform="translate(-1122.018 -97.743)" fill="#191919"/>
    <path id="Path_10034" data-name="Path 10034" d="M1381.8,165.493l-1.062,2.632a8.485,8.485,0,0,0-1.424-.543,5.192,5.192,0,0,0-1.3-.157,2.416,2.416,0,0,0-1.9.869,3.25,3.25,0,0,0-.761,2.221,3.068,3.068,0,0,0,.761,2.173,2.48,2.48,0,0,0,1.894.821,4.975,4.975,0,0,0,1.3-.169,8.171,8.171,0,0,0,1.424-.553l1.062,2.656a4.85,4.85,0,0,1-1.943.917,9.108,9.108,0,0,1-2.088.266,7.279,7.279,0,0,1-3.32-.724,5.16,5.16,0,0,1-2.221-2.113,6.531,6.531,0,0,1-.785-3.269,6.679,6.679,0,0,1,.785-3.3,5.348,5.348,0,0,1,2.221-2.173,6.99,6.99,0,0,1,3.32-.761,8.373,8.373,0,0,1,2.052.29A5.614,5.614,0,0,1,1381.8,165.493Z" transform="translate(-1300.257 -152.94)" fill="#191919"/>
    <path id="Path_10035" data-name="Path 10035" d="M1605.938,74.915v7.46h-3.766V75.2a2.174,2.174,0,0,0-.374-1.34,1.288,1.288,0,0,0-1.1-.495,6.039,6.039,0,0,0-2.752,1.014v7.991h-3.766V65.6l3.766-.266v6.086a11.112,11.112,0,0,1,1.943-.821,6.434,6.434,0,0,1,1.92-.314Q1605.938,70.279,1605.938,74.915Z" transform="translate(-1511.794 -58.957)" fill="#191919"/>
    <path id="Path_10036" data-name="Path 10036" d="M1846.886,77.8l6.229,16.224-3.718.434-1.328-3.791h-5.963l-1.28,3.549h-3.766l6.277-16.418Zm-1.861,4.778-1.861,5.094h3.791Z" transform="translate(-1742.457 -70.8)" fill="#191919"/>
    <path id="Path_10037" data-name="Path 10037" d="M2179.761,165.8a6.082,6.082,0,0,1,1.6,4.515,6.243,6.243,0,0,1-1.63,4.577,5.967,5.967,0,0,1-4.454,1.654,4.946,4.946,0,0,1-1.835-.386v5.165l-3.766.241V164.6h1.907l.654.724a5.335,5.335,0,0,1,3.187-1.111A5.879,5.879,0,0,1,2179.761,165.8Zm-2.933,6.846a3.772,3.772,0,0,0,.654-2.306,3.552,3.552,0,0,0-.654-2.269,2.187,2.187,0,0,0-1.811-.821,2.829,2.829,0,0,0-1.569.553v5.215a3.135,3.135,0,0,0,1.666.507A2.034,2.034,0,0,0,2176.828,172.65Z" transform="translate(-2058.347 -152.864)" fill="#191919"/>
    <path id="Path_10038" data-name="Path 10038" d="M2431.76,165.8a6.08,6.08,0,0,1,1.6,4.515,6.243,6.243,0,0,1-1.63,4.577,5.967,5.967,0,0,1-4.455,1.654,4.943,4.943,0,0,1-1.835-.386v5.165l-3.766.241V164.6h1.907l.654.724a5.334,5.334,0,0,1,3.187-1.111A5.879,5.879,0,0,1,2431.76,165.8Zm-2.933,6.846a3.772,3.772,0,0,0,.654-2.306,3.552,3.552,0,0,0-.654-2.269,2.187,2.187,0,0,0-1.811-.821,2.828,2.828,0,0,0-1.569.553v5.215a3.138,3.138,0,0,0,1.666.507A2.035,2.035,0,0,0,2428.827,172.65Z" transform="translate(-2297.672 -152.864)" fill="#191919"/>
  </g>
</svg>
