<svg id="User" xmlns="http://www.w3.org/2000/svg" width="30" height="30" viewBox="0 0 30 30">
  <rect id="Rectangle_8620" data-name="Rectangle 8620" width="30" height="30" rx="15" fill="#fff"/>
  <g id="vuesax_bulk_profile" data-name="vuesax/bulk/profile" transform="translate(-105 -249)">
    <g id="profile">
      <path id="Vector" d="M4.75,0a4.746,4.746,0,0,0-.12,9.49.807.807,0,0,1,.22,0h.07A4.746,4.746,0,0,0,4.75,0Z" transform="translate(115.25 254)" fill="#191919"/>
      <path id="Vector-2" data-name="Vector" d="M12.12,1.395a9.929,9.929,0,0,0-10.15,0A3.947,3.947,0,0,0,0,4.625a3.914,3.914,0,0,0,1.96,3.21,9.239,9.239,0,0,0,5.08,1.41,9.239,9.239,0,0,0,5.08-1.41,3.945,3.945,0,0,0,1.96-3.23A3.937,3.937,0,0,0,12.12,1.395Z" transform="translate(112.96 264.755)" fill="rgba(25,25,25,0.4)"/>
      <path id="Vector-3" data-name="Vector" d="M0,0H24V24H0Z" transform="translate(108 252)" fill="none" opacity="0"/>
    </g>
  </g>
</svg>
