<svg xmlns="http://www.w3.org/2000/svg" width="25.771" height="25.771" viewBox="0 0 25.771 25.771">
  <g id="vuesax_bulk_arrow-circle-left" data-name="vuesax/bulk/arrow-circle-left" transform="translate(0 -417.832) rotate(-90)">
    <g id="arrow-circle-left" transform="translate(-443.603 0)">
      <path id="Vector" d="M0,11.025A11.025,11.025,0,1,0,11.025,0,11.025,11.025,0,0,0,0,11.025Z" transform="translate(2.198 1.861)" fill="#fff"/>
      <path id="Vector-2" data-name="Vector" d="M.946,10.829a.939.939,0,0,0,.671-.278L6.083,6.083a.955.955,0,0,0,0-1.341L1.617.275A.948.948,0,0,0,.275,1.617l3.8,3.8-3.8,3.8a.955.955,0,0,0,0,1.341A.9.9,0,0,0,.946,10.829Z" transform="translate(10.358 7.473)" fill="#191919"/>
      <path id="Vector-3" data-name="Vector" d="M25.771,0H0V25.771H25.771Z" transform="translate(0)" fill="none" opacity="0"/>
    </g>
  </g>
</svg>
